<?xml version="1.0" standalone="no"?>
<!DOCTYPE svg PUBLIC "-//W3C//DTD SVG 20010904//EN"
 "http://www.w3.org/TR/2001/REC-SVG-20010904/DTD/svg10.dtd">
<svg version="1.0" xmlns="http://www.w3.org/2000/svg"
 width="1600.000000pt" height="1600.000000pt" viewBox="0 0 1600.000000 1600.000000"
 preserveAspectRatio="xMidYMid meet">
<metadata>
Created by potrace 1.14, written by Peter Selinger 2001-2017
</metadata>
<g transform="translate(0.000000,1600.000000) scale(0.100000,-0.100000)"
fill="#000000" stroke="none">
<path d="M0 7986 l0 -6449 188 7 c190 7 204 8 302 19 30 4 105 9 165 12 61 3
128 8 150 9 22 2 83 7 135 11 52 4 111 8 130 11 19 2 100 11 180 20 188 20
550 70 718 98 15 3 56 10 92 16 36 6 76 13 90 16 14 2 50 8 80 14 30 6 69 13
85 16 24 4 203 40 300 60 11 2 67 15 125 29 58 14 116 28 130 31 31 7 205 52
245 64 116 34 221 66 285 87 41 14 82 26 90 28 8 2 33 10 55 18 22 9 90 34
150 56 118 43 323 126 420 170 33 15 75 34 94 42 51 21 514 252 601 300 41 22
111 59 155 82 44 22 92 49 106 59 14 9 29 15 33 11 3 -3 6 -1 6 5 0 7 5 12 11
12 6 0 23 9 39 20 15 11 30 17 34 13 3 -3 6 -2 6 4 0 6 15 16 33 24 17 7 48
22 67 34 19 12 64 38 100 57 87 48 152 83 232 129 36 20 69 35 72 31 3 -3 6
-1 6 5 0 5 21 21 48 34 26 13 64 34 85 46 20 13 74 43 120 67 45 24 109 58
142 76 33 18 83 45 110 59 28 14 52 29 53 34 2 4 12 7 22 7 10 0 20 4 22 9 2
5 26 20 53 33 156 77 261 131 265 138 3 4 57 33 120 65 394 199 540 272 540
269 0 -1 28 11 62 28 76 37 350 147 375 151 10 1 23 5 28 8 6 4 24 10 40 14
17 5 35 10 40 11 57 18 155 45 175 49 14 3 40 9 58 14 17 5 32 8 32 5 0 -3 8
0 18 5 9 5 38 11 64 14 25 3 50 7 55 10 8 5 97 17 158 22 17 1 62 6 100 11 89
11 548 12 640 1 39 -5 93 -10 120 -12 57 -3 159 -15 189 -21 12 -3 55 -9 96
-14 41 -6 101 -15 133 -21 32 -5 70 -12 85 -14 44 -7 96 -17 152 -30 3 -1 30
-5 60 -10 77 -12 81 -13 115 -20 31 -7 44 -9 105 -20 19 -3 46 -8 60 -11 14
-3 39 -8 55 -10 17 -3 53 -9 80 -15 42 -8 246 -43 310 -53 37 -6 104 -16 148
-22 23 -3 53 -7 67 -9 88 -13 270 -33 375 -40 28 -2 86 -6 130 -10 96 -7 586
-7 670 0 33 3 83 7 110 9 44 4 86 8 215 21 58 5 173 21 220 30 14 3 41 7 60
10 81 13 159 28 220 42 35 8 78 17 95 19 34 4 162 33 185 41 8 3 20 7 25 8
251 57 659 226 900 373 39 24 79 48 90 55 11 7 22 14 25 17 3 3 26 19 52 35
27 17 48 33 48 38 0 4 7 7 15 7 8 0 15 3 15 8 0 4 17 18 37 32 44 29 53 37
188 155 118 103 283 275 356 370 13 17 26 32 29 35 16 14 140 192 140 200 0 6
5 10 10 10 6 0 10 6 10 14 0 8 4 16 8 18 12 4 112 172 112 187 0 6 3 11 8 11
4 0 16 19 27 43 10 23 27 53 36 67 9 14 17 27 17 30 0 3 12 32 27 65 27 57 39
86 63 145 5 14 17 41 25 60 21 48 70 192 70 208 0 6 3 12 7 12 4 0 7 6 7 13 0
6 8 37 17 68 9 31 19 66 21 78 3 11 7 29 9 38 38 157 60 274 71 378 4 33 9 71
12 85 3 14 7 144 9 290 4 270 -10 484 -42 620 -3 14 -8 34 -11 45 -2 11 -6 34
-9 50 -16 90 -91 338 -125 409 -11 22 -19 44 -19 50 0 18 -142 296 -151 296
-5 0 -9 5 -9 12 0 13 -120 191 -133 197 -5 2 -16 16 -26 32 -28 45 -207 227
-287 290 -147 116 -353 235 -814 471 -107 55 -247 127 -310 160 -119 62 -391
217 -400 228 -3 3 -41 30 -85 59 -163 110 -320 251 -479 431 -128 145 -204
245 -321 424 -151 231 -212 337 -353 606 -35 69 -85 159 -110 200 -58 96 -179
246 -228 285 -21 17 -46 38 -56 48 -10 9 -20 17 -23 17 -3 0 -19 14 -35 30
-17 17 -30 28 -30 25 0 -6 -20 9 -48 37 -10 10 -40 29 -67 44 -94 49 -110 59
-122 74 -7 8 -13 11 -13 7 0 -4 -20 4 -45 18 -25 14 -52 25 -60 25 -8 0 -15 5
-15 11 0 5 -4 7 -10 4 -5 -3 -10 -1 -10 5 0 6 -3 9 -7 7 -5 -3 -19 0 -33 6
-14 5 -29 11 -35 12 -5 2 -23 9 -40 16 -16 6 -36 13 -43 15 -8 1 -21 6 -30 10
-9 4 -24 8 -32 9 -27 3 -110 29 -110 35 0 3 -10 5 -22 6 -13 0 -39 4 -58 8
-92 20 -298 52 -385 59 -77 7 -400 20 -450 18 -110 -4 -356 -20 -463 -31 -63
-6 -120 -9 -128 -6 -8 3 -14 1 -14 -4 0 -6 -16 -10 -35 -10 -36 0 -167 -18
-331 -45 -50 -9 -108 -18 -130 -20 -21 -3 -86 -14 -144 -26 -140 -27 -210 -40
-241 -43 -14 -1 -31 -6 -37 -10 -7 -4 -16 -5 -21 -1 -5 3 -13 1 -16 -5 -4 -6
-20 -9 -36 -6 -16 2 -29 1 -29 -3 0 -7 -138 -40 -185 -44 -16 -1 -33 -6 -36
-10 -4 -5 -25 -10 -48 -10 -22 -1 -41 -5 -41 -9 0 -4 -8 -7 -17 -7 -10 0 -90
-18 -178 -41 -88 -22 -209 -51 -270 -64 -60 -14 -135 -31 -165 -39 -245 -64
-513 -112 -835 -148 -157 -18 -246 -22 -515 -22 -317 0 -451 8 -675 39 -118
16 -360 59 -360 64 0 1 -9 3 -20 4 -54 7 -111 19 -120 25 -5 4 -23 8 -39 10
-17 2 -41 8 -55 14 -14 5 -32 9 -39 8 -6 -1 -12 2 -12 8 0 5 -9 7 -20 4 -11
-3 -20 -1 -20 3 0 5 -13 10 -28 11 -15 1 -41 7 -57 14 -17 7 -39 14 -49 16
-42 8 -261 86 -264 94 -2 4 -9 6 -16 3 -7 -3 -37 6 -67 20 -30 13 -73 30 -97
38 -23 7 -42 16 -42 20 0 5 -6 8 -14 8 -19 0 -104 38 -111 50 -4 6 -10 8 -15
5 -11 -7 -60 15 -60 27 0 5 -3 7 -8 4 -11 -6 -72 21 -72 33 0 6 -7 8 -15 5 -8
-4 -15 -1 -15 5 0 6 -3 10 -7 9 -14 -5 -73 24 -73 35 0 6 -3 7 -7 4 -3 -4 -13
-1 -21 5 -8 7 -20 13 -28 14 -8 1 -36 16 -64 33 -27 17 -50 28 -50 24 0 -3 -8
1 -18 10 -10 10 -22 14 -25 10 -4 -3 -7 -2 -7 4 0 6 -11 14 -25 17 -14 4 -25
11 -25 17 0 6 -5 7 -10 4 -6 -3 -10 -1 -10 5 0 6 -4 9 -9 6 -5 -3 -14 0 -20 8
-6 7 -29 21 -51 31 -22 10 -40 22 -40 27 0 5 -4 7 -9 4 -4 -3 -19 3 -31 14
-13 11 -28 20 -35 20 -6 0 -20 7 -31 16 -10 8 -13 12 -5 8 9 -4 12 -3 7 4 -4
6 -13 9 -21 5 -8 -3 -15 0 -15 6 0 6 -7 11 -15 11 -9 0 -18 7 -21 15 -4 8 -15
15 -25 15 -11 0 -22 7 -25 15 -4 8 -10 12 -15 9 -5 -3 -9 0 -9 5 0 6 -7 11
-15 11 -9 0 -18 7 -21 15 -4 8 -10 12 -15 9 -5 -3 -9 0 -9 5 0 6 -7 11 -15 11
-8 0 -15 5 -15 11 0 5 -4 8 -9 5 -5 -4 -24 9 -42 26 -18 18 -29 27 -24 19 5
-9 -2 -7 -18 5 -15 10 -27 23 -27 27 0 5 -4 5 -10 2 -5 -3 -10 -1 -10 4 0 6
-5 11 -12 11 -7 0 -21 10 -33 23 -11 13 -15 16 -10 8 6 -8 -5 -4 -22 9 -18 13
-33 28 -33 32 0 5 -5 6 -10 3 -6 -3 -13 1 -16 9 -3 9 -12 16 -19 16 -7 0 -23
12 -35 28 -12 15 -18 20 -14 12 7 -14 1 -9 -58 45 -13 12 -18 14 -14 5 4 -8
-2 -4 -13 9 -12 13 -21 20 -21 16 0 -5 -9 3 -21 16 -12 13 -25 23 -30 22 -5
-2 -13 6 -19 17 -6 11 -17 20 -24 20 -8 0 -21 10 -30 23 -9 12 -14 15 -11 7 4
-8 -2 -5 -13 8 -11 12 -25 22 -31 22 -6 0 -11 5 -11 10 0 6 -6 10 -14 10 -8 0
-24 12 -35 26 -12 15 -21 23 -21 18 0 -4 -7 1 -16 12 -8 10 -13 12 -9 4 6 -13
5 -13 -7 0 -7 8 -25 21 -40 29 -15 8 -25 18 -22 23 3 4 -4 8 -16 8 -12 0 -18
5 -15 10 3 6 0 10 -8 10 -7 0 -23 9 -35 20 -12 12 -22 17 -22 13 0 -4 -16 9
-37 28 -20 18 -32 27 -28 19 7 -13 -21 6 -45 30 -3 3 -10 6 -17 7 -14 3 -106
64 -114 76 -3 5 -10 8 -15 8 -18 -1 -44 11 -44 20 0 6 -4 8 -8 5 -5 -3 -20 5
-33 17 -13 12 -24 20 -24 19 0 -9 -55 22 -55 31 0 5 -7 7 -15 3 -8 -3 -15 -1
-15 5 0 6 -4 7 -10 4 -5 -3 -10 -1 -10 4 0 6 -7 11 -15 11 -8 0 -15 5 -15 11
0 5 -4 7 -10 4 -5 -3 -10 -1 -10 4 0 6 -3 10 -7 9 -5 -1 -35 11 -68 27 -33 16
-63 29 -67 29 -3 1 -10 4 -14 9 -4 4 -15 7 -25 7 -9 0 -20 7 -23 16 -3 8 -11
12 -16 9 -6 -4 -27 3 -46 14 -19 12 -32 15 -28 9 4 -7 -1 -5 -12 4 -10 9 -22
17 -26 18 -38 4 -68 14 -68 22 0 5 -4 7 -8 4 -5 -3 -21 2 -37 10 -15 8 -30 12
-33 10 -2 -3 -17 1 -32 9 -15 8 -30 11 -34 8 -3 -4 -6 -1 -6 6 0 7 -4 9 -10 6
-6 -3 -16 -3 -22 2 -13 8 -29 12 -60 15 -10 1 -18 5 -18 9 0 4 -21 10 -47 14
-27 5 -52 10 -58 11 -37 10 -64 16 -90 19 -16 1 -30 4 -30 5 0 2 -18 5 -105
14 -36 5 -83 11 -106 15 -46 9 -141 13 -317 15 l-117 1 0 -6449z"/>
</g>
</svg>
